<?xml version="1.0" encoding="iso-8859-1"?>
<!-- Generator: Adobe Illustrator 19.0.0, SVG Export Plug-In . SVG Version: 6.00 Build 0)  -->
<svg version="1.1" id="Capa_1" xmlns="http://www.w3.org/2000/svg" xmlns:xlink="http://www.w3.org/1999/xlink" x="0px" y="0px"
	 viewBox="0 0 512 512" style="enable-background:new 0 0 512 512;" xml:space="preserve">
<g>
	<g>
		<path d="M317.879,193.774c-17.156-17.155-39.691-25.733-62.226-25.733c-2.265,0-4.529,0.111-6.788,0.284l-26.212,45.564v123.685
			c31.759,12.797,69.527,6.349,95.226-19.349C352.19,283.913,352.19,228.085,317.879,193.774z"/>
	</g>
</g>
<g>
	<g>
		<polygon points="186.828,0 152.653,0 152.653,78.467 124.653,104.513 96.653,78.467 96.653,0 62.477,0 0.347,108 45.219,186 
			204.087,186 248.958,108 		"/>
	</g>
</g>
<g>
	<g>
		<path d="M56.653,216v228c0,37.495,30.505,68,68,68s68-30.505,68-68V216H56.653z M139.653,432h-30V255h30V432z"/>
	</g>
</g>
<g>
	<g>
		<path d="M511.653,311V200h-69.188c-3.885-13.014-9.105-25.536-15.603-37.427l48.702-48.701L397.781,36.09L349.08,84.791
			c-12.201-6.667-25.056-11.986-38.427-15.9V0h-89.214l53.524,93.041L283.568,108l-8.606,14.959l-8.948,15.555
			c26.676,2.331,52.706,13.675,73.077,34.047c46.008,46.008,46.008,120.869,0,166.877c-23.004,23.004-53.221,34.506-83.438,34.506
			c-11.12,0-22.239-1.564-33-4.679V444c0,23.409-8.255,44.924-22,61.797V512h110v-68.891c13.371-3.914,26.227-9.233,38.427-15.9
			l48.701,48.701l77.782-77.782l-48.701-48.701c6.667-12.201,11.986-25.056,15.9-38.427H511.653z"/>
	</g>
</g>
<g>
</g>
<g>
</g>
<g>
</g>
<g>
</g>
<g>
</g>
<g>
</g>
<g>
</g>
<g>
</g>
<g>
</g>
<g>
</g>
<g>
</g>
<g>
</g>
<g>
</g>
<g>
</g>
<g>
</g>
</svg>
